<?xml version="1.0" encoding="UTF-8"?>
<svg id="Layer_1" xmlns="http://www.w3.org/2000/svg" version="1.1" viewBox="0 0 200 200">
  <!-- Generator: Adobe Illustrator 29.5.0, SVG Export Plug-In . SVG Version: 2.1.0 Build 137)  -->
  <defs>
    <style>
      .st0 {
        fill: #f16b99;
      }

      .st1 {
        fill: #36aeab;
      }

      .st2 {
        fill: #fff;
      }

      .st3 {
        fill: #f39440;
      }

      .st4 {
        fill: #ad6dae;
      }
    </style>
  </defs>
  <path class="st1" d="M28.6,110h23.1l-11.4-19.9-11.7,19.9Z"/>
  <path class="st0" d="M186.6,33.4c-1.4-1.4-4-1.4-5.7,0-2.8,2.8-3.1,6-3.1,8.5s0,1.4.3,2c.3,2.6.3,3.4-.6,4.3-.9.9-1.7.9-4.3.6-.6,0-1.4-.3-2-.3-2.6-.3-5.7.3-8.5,3.1-2.8,2.8-3.1,6-3.1,8.5s0,1.4.3,2c.3,2.6.3,3.4-.6,4.3-.9.9-1.4.9-4.3.6-.6,0-1.4-.3-2-.3-2.6-.3-5.7.3-8.5,3.1-1.4,1.4-1.4,4,0,5.7.9.9,1.7,1.1,2.8,1.1s2-.3,2.8-1.1c.9-.9,1.4-.9,4.3-.6,2.8.3,7.1.9,10.8-2.8,3.7-3.7,3.1-8,2.8-10.8-.3-2.6-.3-3.4.6-4.3.9-.9,1.7-.9,4.3-.6,2.8.3,7.1.9,10.8-2.8,3.7-3.7,3.1-8,2.8-10.8-.3-2.6-.3-3.4.6-4.3,1.1-1.1,1.1-3.7-.6-5.1Z"/>
  <path class="st4" d="M185.8,143l-3.4-3.4-6.6,6.5-6.6-6.5-3.4,3.4-3.7,3.7,6.6,6.6-6.6,6.3,7.1,7.1,6.6-6.6,6.6,6.6,7.1-7.1-6.6-6.3,6.6-6.6-3.7-3.7Z"/>
  <path class="st4" d="M16.6,181.5h10v-9.1h9.4v-10h-9.4v-9.1h-10v9.1H7.5v10h9.1v9.1Z"/>
  <path class="st4" d="M130.8,15.1l-6.6,6.6-6.6-6.6-6.8,7.1,6.3,6.6-6.3,6.6,6.8,7.1,6.6-6.6,6.6,6.6,7.1-7.1-6.6-6.6,6.6-6.6-7.1-7.1Z"/>
  <path class="st1" d="M76.4,25.4c4.3,0,8-3.4,8-8s-3.4-8-8-8-8,3.4-8,8,3.7,8,8,8Z"/>
  <path class="st1" d="M163.9,99.7c-4.3,0-8,3.4-8,8s3.4,8,8,8,8-3.4,8-8-3.7-8-8-8Z"/>
  <path class="st3" d="M24,50.7c8,0,14.2-6.3,14.2-14.2s-6.3-14.2-14.2-14.2-14.2,6.3-14.2,14.2,6.3,14.2,14.2,14.2ZM24,30.2c3.4,0,6.3,2.8,6.3,6.3s-2.8,6.3-6.3,6.3-6.3-2.8-6.3-6.3,2.8-6.3,6.3-6.3Z"/>
  <path class="st2" d="M69.3,131.3c3.4,11.4,14,19.9,25.9,19.9s27.1-12.2,27.1-27.1-12-23.6-20.8-33c-6.3-6.8-12.5-13.7-18.8-20.5-1.7,6.3-3.4,12.5-5.1,18.8-2.3,7.7-4.6,15.7-6.8,23.4-2,6-3.4,11.7-1.4,18.5ZM86.7,86.3l17.1,18.8-24.2,6,7.1-24.8ZM76.7,120.2l33.3-8.3c2.6,3.4,4.3,7.4,4.3,12,0,10.5-8.5,19.1-19.1,19.1s-19.1-8.5-19.1-19.1.3-2.6.6-3.7Z"/>
  <path class="st2" d="M135.7,187.4c0-16.8-13.7-30.8-30.8-30.8h-19.9c-16.8,0-30.8,13.7-30.8,30.8h8c0-12.5,10.3-22.8,22.8-22.8h19.9c12.5,0,22.8,10.3,22.8,22.8h8Z"/>
</svg>