<?xml version="1.0" encoding="UTF-8"?>
<svg id="Layer_1" xmlns="http://www.w3.org/2000/svg" version="1.1" viewBox="0 0 200 145.7">
  <!-- Generator: Adobe Illustrator 29.5.0, SVG Export Plug-In . SVG Version: 2.1.0 Build 137)  -->
  <defs>
    <style>
      .st0 {
        fill: #36aeab;
      }

      .st1 {
        fill: #fff;
      }
    </style>
  </defs>
  <path class="st1" d="M69.3,77c3.4,11.4,14,19.9,25.9,19.9s27.1-12.2,27.1-27.1-12-23.6-20.8-33c-6.3-6.8-12.5-13.7-18.8-20.5-1.7,6.3-3.4,12.5-5.1,18.8-2.3,7.7-4.6,15.7-6.8,23.4-2,6-3.4,11.7-1.4,18.5h0ZM86.7,32l17.1,18.8-24.2,6s7.1-24.8,7.1-24.8ZM76.7,65.9l33.3-8.3c2.6,3.4,4.3,7.4,4.3,12,0,10.5-8.5,19.1-19.1,19.1s-19.1-8.5-19.1-19.1.3-2.6.6-3.7Z"/>
  <path class="st1" d="M135.7,133.1c0-16.8-13.7-30.8-30.8-30.8h-19.9c-16.8,0-30.8,13.7-30.8,30.8h8c0-12.5,10.3-22.8,22.8-22.8h19.9c12.5,0,22.8,10.3,22.8,22.8h8Z"/>
  <g id="Layer_3">
    <path class="st0" d="M95.7,95.9h0c0-5.6-9.9-8.2-9.9-20.9s-9.8,15.9-9.7,21.2,4.5,9.5,10,9.5,9.6-4.2,9.6-9.7h0Z"/>
  </g>
</svg>